<?xml version="1.0" encoding="UTF-8"?><svg id="Calque_2" xmlns="http://www.w3.org/2000/svg" viewBox="0 0 32.63 23.61"><defs><style>.cls-1{fill:#8fe658;}</style></defs><g id="Calque_1-2"><path class="cls-1" d="m32.22,3.32c-.04-.6-.09-1.61-.84-2.31-.74-.7-1.75-.71-2.35-.72-2.77-.03-5.59,0-8.31.04C15.31.41,9.71.48,4.27.03c-.94-.08-1.78.03-2.49.32C.72.79.03,1.74,0,2.74h0l.24,16.57c0,.64.02,1.53.49,2.3.96,1.58,3.08,1.61,3.99,1.62l23.46.37c.11,0,.23,0,.36,0,.86,0,2.07-.09,2.95-.9,1.1-1.01,1.11-2.62,1.12-3.48.04-5.28-.09-10.63-.4-15.9Zm-5.81,11.51c-.51-.44-1.02-.82-1.52-1.19-.76-.57-1.44-1.07-2.03-1.72.26-.26.51-.52.75-.77,1.41-1.48,2.7-2.96,3.94-4.4.86-1,1.76-2.02,2.69-3.03.29,5.14.42,10.35.38,15.5,0,.07,0,.14,0,.21-1.25-1.64-2.53-3.15-4.2-4.58ZM4.1,2.02c5.54.47,11.19.39,16.65.32,2.65-.03,5.39-.07,8.08-.04-.97,1.06-1.9,2.12-2.79,3.15-1.23,1.42-2.49,2.89-3.87,4.32-.99,1.03-2.01,2.1-3.22,2.78-1.21.68-2.53.87-3.53.48-.58-.22-1.12-.64-1.72-1.13-3.71-3.01-7.21-6.34-10.42-9.88.25-.03.53-.03.83,0Zm-1.86,17.15l-.23-15.56c2.59,2.83,5.35,5.51,8.26,8.02-1.01.87-1.85,1.71-2.72,2.6-.29.3-.59.61-.91.93-.67.67-1.45,1.36-2.27,2.08-.72.63-1.44,1.28-2.12,1.93Zm25.98,2.43l-23.47-.37c-.53,0-1.11-.04-1.57-.19.77-.77,1.64-1.55,2.51-2.31.81-.71,1.65-1.45,2.37-2.17.32-.33.63-.64.93-.94.94-.96,1.79-1.81,2.84-2.69.21.17.41.35.62.52.71.57,1.41,1.12,2.27,1.44.58.22,1.21.33,1.85.33,1.11,0,2.27-.32,3.38-.94.52-.29.99-.65,1.45-1.02.73.8,1.53,1.4,2.31,1.98.46.34.94.7,1.41,1.1,1.81,1.55,3.12,3.2,4.55,5.12-.41.12-.92.13-1.44.12Z"/></g></svg>