<?xml version="1.0" encoding="UTF-8"?><svg id="Calque_2" xmlns="http://www.w3.org/2000/svg" viewBox="0 0 72.21 55.9"><defs><style>.cls-1{fill:#8ee459;}</style></defs><g id="Calque_1-2"><path class="cls-1" d="m72.17,28.83c-.09-2.68-.34-5.39-.58-8.01-.41-4.49-.84-9.13-.44-13.64.05-.52-.32-.99-.84-1.08l-4.19-.66c-.1-.02-.19,0-.28.01-.03-1.22-.05-1.94-.05-1.99-.01-.39-.25-.74-.61-.89-.69-.29-16.68-6.89-29.52,2.28-.02,0-.03,0-.05,0h0c-.3,0-.57.14-.75.36C29.76,1.39,23.32-.42,16.96.21c-2.82.28-5.48,1.02-7.9,2.18-.49.24-1.05.54-1.42,1.11-.41.64-.42,1.37-.43,1.85v.15c-.76-.02-1.81-.04-2.89-.06-1.28-.02-2.56-.04-3.29-.07-.32-.02-.55.1-.75.3C.09,5.88-.01,6.15,0,6.43l.42,8.52c.64,13.08,1.25,25.43.33,38.56-.02.28.08.56.27.76.19.2.48.31.75.31,1.75-.04,3.54-.09,5.35-.14,9.15-.24,18.6-.49,27.32-.3.04.17.1.35.16.54.07.21.23.71.72,1,.29.17.58.22.82.22.17,0,.31-.02.41-.03.27-.04.49-.11.66-.22.32-.06.74-.18,1.08-.53.12-.12.21-.26.29-.4,4.56.37,9.49.56,14.46.56,6.1,0,12.24-.28,17.79-.83.5-.05.89-.47.9-.97.07-3.02.14-5.8.21-8.58.07-2.78.14-5.57.21-8.59.06-2.45.11-4.97.03-7.47Zm-8.36-24.65c.12,4.38.77,29.27.83,44.2-9.8-7.13-23.64-2.34-28.16.12l.13-41.88c10.61-7.78,24.22-3.52,27.2-2.43Zm-1.22,45.24c-8.08-.2-16.03-.28-23.04-.23,5.07-2.11,15.33-4.64,23.04.23ZM9.21,5.39c0-.27.01-.64.12-.8.1-.15.43-.31.6-.4,2.21-1.06,4.64-1.73,7.23-1.99,6.16-.61,12.68,1.38,17.45,5.33l-.12,40.25c-2.93-2.23-7.35-3.01-11.85-3.01-5.58,0-11.25,1.2-14.26,2.31l.83-41.69Zm23.87,43.83c-2.15-.04-4.59-.14-7.12-.25-5.26-.23-11.15-.49-16.42-.2,5.22-1.83,17.9-3.62,23.55.45Zm.98,2.91c-8.65-.17-17.97.07-26.99.31-1.43.04-2.86.08-4.25.11.82-12.84.23-24.92-.4-37.7l-.37-7.44c.66.01,1.45.03,2.24.04,1.07.02,2.13.03,2.88.06l-.82,41.12c0,.36.18.7.5.88.03.02.07.03.11.05-.04.13-.07.27-.06.41.05.55.54.96,1.08.92,5.57-.45,12.12-.16,17.9.09,3.04.13,5.94.26,8.41.27-.03.19-.1.46-.18.75-.01.05-.03.1-.04.15Zm2.76,1.37c0,.07,0,.14,0,.18-.05,0-.1.02-.13.02-.1.01-.19.03-.28.06-.2-.72-.18-1.2-.15-2.07v-.34s0-.09,0-.14c.21,0,.43,0,.64,0,0,.21-.01.4-.02.6-.02.48-.03.96-.05,1.69Zm33.31-17.24c-.07,3.02-.14,5.81-.21,8.59-.06,2.51-.12,5.02-.19,7.7-9.74.91-21.16.97-30.9.19,0-.31.02-.59.03-.86,0-.22.01-.44.02-.68,8.03-.06,17.37.04,26.72.31h.03c.14,0,.27-.03.39-.08,0,0,0,0,0,0,.1-.05.19-.11.27-.18.02-.02.04-.05.06-.07.06-.06.1-.13.14-.2.02-.03.03-.06.05-.1.03-.09.06-.18.06-.28,0-.02.01-.03.01-.05,0,0,0,0,0-.01,0,0,0-.01,0-.02,0-12.48-.52-34.19-.75-43.07l3.19.5c-.29,4.39.12,8.8.51,13.07.24,2.59.49,5.27.57,7.89.08,2.44.02,4.94-.03,7.36Z"/><path class="cls-1" d="m43.5,18.53c2.7-1.39,6.02-1.38,8.95-1.37,2.44,0,4.94.14,6.36,1.67.2.21.46.32.73.32.24,0,.49-.09.68-.27.4-.38.43-1.01.05-1.41-1.97-2.12-5.07-2.3-7.82-2.31-3.16,0-6.74-.02-9.87,1.6-.49.25-.68.86-.43,1.35.25.49.86.68,1.35.43Z"/><path class="cls-1" d="m43.66,25.8c1.95-.9,4.16-1.27,6.3-1.62,1.6-.27,3.25-.55,4.85-.47,1.18.05,2.86.34,4.16,1.38.43.35,1.06.28,1.41-.15.35-.43.28-1.06-.15-1.41-1.36-1.1-3.21-1.73-5.33-1.82-1.81-.08-3.57.21-5.27.5-2.27.38-4.61.77-6.8,1.78-.5.23-.72.82-.49,1.33.17.37.53.58.91.58.14,0,.28-.03.42-.09Z"/><path class="cls-1" d="m60.3,30.55c-5.41-1.52-11.33-1.41-16.68.31-.53.17-.82.73-.65,1.26.14.42.53.69.95.69.1,0,.2-.02.31-.05,4.98-1.6,10.49-1.7,15.52-.29.53.15,1.08-.16,1.23-.69.15-.53-.16-1.08-.69-1.23Z"/><path class="cls-1" d="m60.21,37.83c-2.37-1.18-5.21-1.69-8.46-1.5-2.82.17-5.55.81-8.2,1.44-.54.13-.87.67-.74,1.2.11.46.52.77.97.77.08,0,.15,0,.23-.03,2.57-.61,5.22-1.24,7.86-1.39,2.89-.17,5.4.26,7.45,1.29.49.25,1.09.05,1.34-.45s.05-1.09-.45-1.34Z"/><path class="cls-1" d="m43.13,11.39c.08,0,.16,0,.25-.03,2.67-.64,5.43-1.3,8.17-1.46,3-.18,5.61.28,7.74,1.35.52.26,1.15.05,1.41-.46.26-.52.05-1.15-.46-1.41-2.46-1.25-5.42-1.77-8.81-1.57-2.93.17-5.78.86-8.54,1.52-.56.13-.91.7-.77,1.26.12.48.54.8,1.02.8Z"/><path class="cls-1" d="m14.42,10.24c2.51-.58,5.44-1.19,8.33-1.1,2.97.1,5.63,1.02,7.1,2.47.17.17.39.25.62.25s.46-.09.63-.26c.34-.35.33-.9-.01-1.24-1.81-1.77-4.82-2.85-8.27-2.97-3.12-.11-6.17.53-8.79,1.14-.47.11-.77.58-.66,1.05.11.47.58.76,1.05.66Z"/><path class="cls-1" d="m14.3,15.24c-.54.09-.91.61-.82,1.15.09.54.61.91,1.15.82,2.75-.47,5.58-.96,8.37-.9,3.02.06,5.67.8,7.66,2.12.17.11.36.17.55.17.32,0,.64-.16.83-.44.31-.46.18-1.08-.28-1.39-2.34-1.56-5.28-2.39-8.73-2.46-2.99-.06-5.91.44-8.75.92Z"/><path class="cls-1" d="m15.17,24.61c2.71-.65,5.48-.88,8.26-.68,2.93.21,5.14.9,6.78,2.11.18.13.39.2.59.2.31,0,.61-.14.8-.4.33-.44.24-1.07-.21-1.4-1.95-1.44-4.51-2.26-7.83-2.49-2.98-.21-5.96.04-8.86.73-.54.13-.87.67-.74,1.21.13.54.67.87,1.21.74Z"/><path class="cls-1" d="m14.75,30.86c-.53.16-.82.73-.66,1.25.16.53.72.82,1.25.66,5.11-1.6,10.86-1.27,15.75.92.13.06.27.09.41.09.38,0,.75-.22.91-.59.23-.5,0-1.1-.5-1.32-5.33-2.38-11.59-2.75-17.16-1Z"/><path class="cls-1" d="m25.29,37.89c-1.72-.34-3.49-.3-5.01-.23-1.79.08-3.59.2-5.37.38-.55.05-.95.54-.9,1.09.06.55.54.96,1.09.9,1.74-.17,3.51-.3,5.26-.37,1.47-.06,3.03-.1,4.54.2,1.07.21,2.59.7,3.68,1.84.2.2.46.31.72.31.25,0,.5-.09.69-.28.4-.38.41-1.02.03-1.41-1.15-1.2-2.79-2.04-4.73-2.42Z"/></g></svg>