<?xml version="1.0" encoding="UTF-8"?><svg id="Calque_2" xmlns="http://www.w3.org/2000/svg" viewBox="0 0 42.97 44.34"><defs><style>.cls-1{fill:#8fe559;}</style></defs><g id="Calque_1-2"><path class="cls-1" d="m21.48,44.34c-.94,0-1.89-.06-2.82-.19-1.47-.2-2.93-.56-4.34-1.08-.86-.31-2.05-.83-3.02-1.82-.54.16-1.02-.15-1.34-.37-.5-.33-.99-.68-1.45-1.04-.94-.73-1.82-1.54-2.63-2.42-.78-.84-1.49-1.76-2.12-2.71-.09-.14-.19-.27-.29-.41-.17-.24-.35-.48-.5-.74-.31-.53-.34-1.04-.33-1.5-.91-.41-1.22-1.63-1.43-2.47-.04-.18-.09-.34-.13-.47-.37-1.15-.65-2.34-.83-3.54C.07,24.35-.02,23.09,0,21.84v-.42c0-.91,0-2.01.53-2.92-.43-.91.11-2.19.46-3.03.07-.17.13-.32.17-.43.35-1.05.79-2.08,1.29-3.08.76-1.5,1.68-2.9,2.74-4.16.51-.62,1.07-1.21,1.65-1.77l.16-.15c.23-.22.46-.45.74-.65.14-.1.4-.27.69-.34.01-.02.02-.04.03-.05.1-.18.21-.36.34-.53.33-.4.77-.61,1.15-.8.14-.07.28-.13.4-.21.58-.36,1.17-.69,1.75-.98,1.47-.73,3.03-1.3,4.63-1.67l.32-.08c.87-.22,2.08-.51,3.09-.05.03-.02.05-.04.08-.06,1.05-.74,3-.46,4.96-.04l.33.07c1.1.22,2.21.53,3.28.93l.31.11c.45.16.95.34,1.39.61.55.34.72.73.75,1.11.38,0,.82.01,1.21.1.57.13,1.05.5,1.43.8l.22.17c.99.73,1.92,1.56,2.77,2.46.97,1.02,1.84,2.14,2.6,3.34.37.59.73,1.21,1.05,1.84.06.12.12.25.16.38h.02c.23.44.33,1.21.34,2.02.84.37,1.04,1.38,1.17,1.97.03.13.05.26.08.38.24.96.42,1.96.54,2.95.12,1.06.17,2.15.14,3.23v.35c-.01.64-.02,1.53-.62,2.14.43.98,0,2.33-.22,3.02l-.08.26c-.39,1.3-.9,2.58-1.52,3.81-.65,1.27-1.41,2.47-2.26,3.58-.4.52-.85,1.04-1.34,1.56-.34.37-.62.64-.98.78-.24.56-.93,1.12-1.96,1.83l-.13.09c-.88.64-1.81,1.21-2.76,1.7-.88.45-1.79.84-2.71,1.16l-.24.09c-.79.31-1.93.75-2.69.43-.18.15-.38.26-.59.35-.37.19-.78.3-1.26.26h0c-.45.02-.87,0-1.24.02-.29.01-.58.02-.88.02Zm-9.39-4.46c.78.99,1.94,1.49,2.74,1.78,1.31.48,2.66.81,4.03,1,1.13.15,2.29.21,3.43.16.18,0,.36,0,.56,0,.57,0,1.04-.02,1.36-.14.46-.25.84-.83,1.09-1.26-.11-.05-.23-.1-.34-.16-.11-.06-.33-.08-.52-.1-.44-.05-1.11-.12-1.4-.77-.03-.02-.32-.24-1.58-.68l-.1-.04c-.5-.17-1.01-.35-1.58-.67-.21-.11-.35-.26-.45-.43-.54.24-1.16.31-1.6.35-.12.01-.21.02-.27.03-.35.17-1.51.22-2.04.08-.45-.13-1.54-.31-1.98-.31-.25.21-.77.34-2.37-.32.19.35.58.93,1.01,1.48h0Zm14.68,1.99s-.01.02-.02.03c-.05.09-.11.2-.18.31.26-.07.6-.19,1.01-.35.12-.05.22-.09.29-.11.86-.3,1.7-.66,2.52-1.08.89-.45,1.75-.98,2.57-1.58l.1-.07c-.3.04-.57.02-.78-.02-.24.18-.46.32-.65.45-.31.2-.68.34-1.11.49-.55.2-1.18.42-1.53.76-.68.64-1.71,1.01-2.23,1.17Zm-1.05-1.13s0,0-.01.01c0,0,0,0,.01-.01Zm-1.39-1.1c.08.01.18.02.26.03.32.03.71.07,1.08.27.16.09.33.15.47.2.15.05.31.11.46.2.44-.16,1.02-.41,1.37-.74.58-.55,1.4-.84,2.06-1.08.31-.11.64-.23.78-.32.54-.36,1.34-.88,1.67-1.63.15-.32.4-.85.69-1.44.51-1.05,1.21-2.5,1.4-3.04.1-.3.25-.6.39-.89.12-.25.3-.63.33-.8-.18-.26-.23-.49-.24-.69-.33-.21-.54-.45-.7-.63-.07-.07-.15-.17-.19-.2-.78.05-1.94-.33-2.54-1.09-.14-.18-.28-.37-.4-.55-.63.4-1.41.93-1.88,1.42-.66.68-1.51.98-2.33,1.27-.2.07-.4.14-.6.22l-.24.09c-.86.33-1.94.75-2.61,1.32-.5.42-1.17,1-1.99.89-.01.05-.03.11-.04.16-.13.48-.37,1.37-.36,1.6,0,.09.02.22.04.35.08.63.19,1.49-.2,2.15-.13.22-.27.43-.39.61,0,.06,0,.11,0,.15,0,.06,0,.18.01.25.43.22.81.36,1.25.51l.1.03c1.21.42,2.04.81,2.38,1.35Zm.08.14s0,0,0,0c0,0,0,0,0,0Zm-20.27-7.55c0,.24.03.41.12.57.13.22.28.42.43.63.11.15.22.3.32.46.59.89,1.25,1.74,1.98,2.53.75.82,1.58,1.58,2.45,2.25.06.05.12.09.18.14-.18-.45-.15-.66-.13-.77.02-.12.04-.22.07-.32-.64-.35-1.47-.93-1.84-1.76-.18-.41-.58-.86-.96-1.29-.42-.48-.82-.93-1.03-1.43-.26-.13-.52-.31-.81-.51-.2-.13-.5-.34-.78-.5Zm30.56,6.1s.05.04.08.06v-.02s.08-.34.08-.34l-.16.3Zm-14.21-.65s0,0,0,0c0,0,0,0,0,0Zm-6.85-.45c.73,0,1.59.2,2.19.36.2.05.93.02,1.12-.04.14-.07.33-.09.62-.12.33-.04,1.21-.13,1.4-.41.03-.04.07-.09.11-.15.14-.19.4-.55.61-.91.12-.21.04-.88,0-1.19-.02-.17-.04-.33-.05-.46-.02-.41.14-1.05.41-2.07.08-.29.15-.56.2-.76-.24-.25-1.01-.78-2.25-1.38-1.15-.56-1.8-1.86-2-2.8-.09-.41-.37-.74-1-1.18-.28-.19-.5-.27-.79-.37-.25-.09-.54-.19-.88-.37-.34-.18-.57-.48-.66-.84-.04-.18-.04-.35-.02-.52-.31-.03-.64-.06-.88-.07-.58,0-.99.16-1.31.58-.52.68-1.3.67-1.88.66-.29,0-.63,0-.74.09-.18.16-.18.16-.11.75.04.29.08.64.09,1.07.03,1.15-.19,1.52-.55,1.99-.08.11-.18.23-.28.41-.13.23-.1.39.02.8.07.25.16.54.17.87.02.58-.04,1.19-.07,1.46.1.26.48.69.79,1.05.43.49.92,1.05,1.2,1.67.22.5.94.94,1.43,1.18h.01s.41.18.41.18c.7.33,1.49.62,1.81.68.24-.11.55-.16.9-.16Zm-1.18.36s-.01.02-.02.02c0,0,.01-.02.02-.02Zm24.28-7.62c.18.61-.14,1.28-.43,1.88-.12.24-.24.49-.32.73-.21.62-.88,2-1.47,3.2-.25.51-.47.97-.62,1.29.36-.17.77-.27,1.23-.11.22.04.28.02.28.02.05-.02.22-.2.35-.34.51-.55.93-1.04,1.3-1.52.8-1.03,1.51-2.15,2.11-3.33.58-1.14,1.06-2.34,1.42-3.56l.09-.29c.18-.56.6-1.88.12-2.08v-.02s-.41-.29-.41-.29c-.1.48-.31,1.13-1.29,1.52-.51.2-.86.89-1.14,1.44l-.06.13c-.16.31-.5.99-1.17,1.35Zm-33.15.56c.75,0,1.48.48,2.08.89,0-.07,0-.14,0-.21,0-.14-.05-.31-.11-.5-.14-.49-.34-1.16.11-1.96.15-.26.28-.44.4-.59.2-.25.25-.33.24-1.03,0-.37-.05-.67-.08-.92-.09-.68-.18-1.38.6-2.07,0,0,0,0,0,0-.44-.5-.94-1.16-1.17-1.8-.2-.56-.35-1.22-.49-1.86-.14-.62-.28-1.27-.45-1.65-.08-.17-.17-.31-.24-.44-.26-.43-.45-.83-.41-1.41-.07.09-.14.17-.21.26-.28.34-.56.69-.81.94-.16.16-.35.33-.55.5-.26.22-.75.63-.78.82h-.01c-.21.54-.21,1.25-.21,1.93v.44c-.02,1.17.06,2.35.23,3.5.17,1.12.43,2.23.77,3.31.05.15.1.34.15.55.21.83.37,1.21.48,1.37.15-.04.3-.06.45-.06Zm18.11.43c.15.03.34-.09.86-.54.87-.74,2.07-1.2,3.04-1.58l.24-.09c.21-.08.43-.16.65-.24.69-.24,1.33-.47,1.75-.9.72-.73,1.81-1.43,2.78-2.03.16-.1.26-.2.28-.28.02-.09-.04-.26-.15-.44-.58-.93-.87-2.7-.34-4.06.4-1.03.01-1.84-.25-2.24-.5-.75-.67-2.48-.72-3.06-.15-.3-.57-.65-.97-.6-.7.09-2.71.17-3.52-.13-.47-.17-1.9-.7-2.88-.82-.41-.05-1.04-.03-1.64-.02-.81.02-1.58.04-2.1-.08-.07,0-.18.03-.22.07-.03.03-.06.11-.06.22-.05,1.37-.33,3.17-1.39,3.93-.15.11-.31.21-.47.32-.7.46-1.13.77-1.17,1.27-.09,1.31-.29,2.35-.58,3.13l.15.02-.5.71c-.07.11-.14.22-.22.31-.05.08-.11.19-.13.27.2.1.38.16.55.22.33.12.7.25,1.15.56.68.47,1.4,1.08,1.62,2.1.12.54.53,1.45,1.2,1.77,2.15,1.04,2.84,1.75,3.05,2.22Zm13.64-.48s0,0,0,0c0,0,0,0,0,0Zm-1.17-3.09c.69,0,1.05.42,1.3.7.13.15.25.28.41.38.07.04.14.09.21.14.13-.09.29-.28.48-.67l.06-.12c.35-.7.88-1.75,1.93-2.16.31-.12.31-.15.39-.54.02-.1.04-.21.07-.32.07-.28.13-.48.19-.62-.01-.39.03-1.17.44-2.28.29-.78-.31-3.12-.83-4.53h.04c-.05-.13-.08-.24-.11-.34-.03-.12-.08-.27-.14-.44-.11-.28-.34-.61-.58-.95-.24-.35-.52-.75-.74-1.19-.31-.62-1.12-1-1.77-1.31-.35-.16-1.35-.32-2.16-.42-.02.05-.04.12-.06.19-.22.66-.81,2.42-1.91,2.98.09.79.25,1.59.42,1.84.72,1.08.87,2.4.4,3.61-.35.91-.11,2.2.21,2.72.34.55.46,1.08.34,1.58-.06.26-.18.5-.36.72.11.16.24.34.37.5.23.29.85.54,1.3.53.03,0,.06,0,.08,0Zm6.54-3.46l.56.4c.15-.15.18-.44.18-1.1v-.38c.03-1.01,0-2.03-.12-3.02-.11-.93-.27-1.85-.5-2.76-.01-.04-.02-.08-.03-.13-.02.07-.04.14-.06.2-.05.14-.12.32-.25.48.41,1.26,1.02,3.58.57,4.81-.26.7-.33,1.21-.34,1.5Zm-32.24-.25c.09,0,.17,0,.26,0,.23,0,.47-.01.52-.08.61-.8,1.42-1.19,2.53-1.17.44,0,1.08.08,1.52.14.25-.49.51-1.38.63-3.02.09-1.27,1.06-1.91,1.84-2.42.14-.09.29-.19.42-.28.42-.3.72-1.38.77-2.76.02-.68.32-1.08.57-1.29.16-.14.33-.23.49-.3-.07-.44-.2-.9-.38-1.1-.42-.48-.49-.59-.69-.92-.07-.12-.17-.27-.32-.51-.13-.21-.23-.4-.3-.56h-.01s-.22-.35-.22-.35c-.01-.02-.04-.07-.17-.16-.14-.08-.74,0-1.11.24-.38.25-.68.31-.96.38-.2.05-.43.1-.79.24-.78.31-1.4.1-1.82-.04-.16-.05-.32-.1-.39-.1-.17.03-.28.1-.46.24-.19.14-.42.31-.75.39-.34.08-1.26.53-1.87,1.18-.54.58-.89,1.28-1.11,2.2-.22.93-.48,1.72-.95,2.94-.22.58-.18.66.06,1.05.1.17.22.36.32.6.23.52.38,1.21.54,1.94.13.59.26,1.2.43,1.67.23.63.96,1.43,1.39,1.85Zm-1.1-16.06c-.36.37-.71.76-1.03,1.15-.98,1.18-1.84,2.49-2.55,3.88-.47.93-.88,1.9-1.21,2.87-.04.14-.12.32-.21.53-.19.45-.32.82-.41,1.11.01-.01.02-.02.03-.03.22-.22.47-.53.71-.83.33-.4.64-.78.92-1.04.27-.24.6-.34.94-.28.05,0,.1.02.14.04.22-.63.37-1.15.51-1.73.28-1.17.76-2.12,1.48-2.88.29-.31.61-.58.94-.8-.04-.16-.1-.32-.16-.43-.28-.45-.25-1-.1-1.56Zm26.79,3.69c.7.1,1.54.25,2.01.47.76.36,1.92.91,2.46,1.99.18.35.41.69.63,1.01.09.13.17.25.26.37,0-.15.01-.3.01-.44-.02-.15-.03-.32-.05-.49-.05-.57-.12-1.21-.31-1.6-.3-.59-.63-1.17-.98-1.72-.71-1.12-1.52-2.16-2.42-3.11-.79-.83-1.66-1.6-2.58-2.29l-.24-.19c-.28-.22-.59-.46-.83-.51-.32-.07-.75-.06-1.16-.06-.05,0-.1,0-.16,0-.03.05-.07.09-.1.14.13.15.29.3.44.46.56.57,1.05,1.07,1.16,1.63.04.14.35.72.58,1.14.81,1.51,1.31,2.5,1.27,3.18Zm-5.19,2.08c.79,0,1.5.43,1.95.99.22-.24.57-.77.97-1.96.26-.77.36-.93.72-1.31l.03-.03c-.12-.49-.75-1.66-1.07-2.25-.45-.84-.67-1.25-.73-1.56-.06-.16-.5-.61-.76-.88-.37-.38-.75-.77-.99-1.16-.19-.31-1.11-.67-1.66-.88-.31-.12-.6-.23-.83-.34-.59-.28-3.66-.44-4.19-.35-.41.07-.61.15-.7.19-.09.42-.5.98-2.48,2.37-.26.2-.97,1.39-1.54,2.47.02.1.1.27.21.45.16.25.26.42.34.55.16.26.19.31.54.71.47.54.67,1.42.76,2.03.37.01.85,0,1.27,0,.66-.02,1.34-.03,1.86.03,1.04.12,2.34.58,3.23.9.36.13,1.91.16,2.81.05.09-.01.18-.02.27-.02ZM9.4,6.22c-.07.33-.17.69-.28.96-.36.87-.38,1.15-.35,1.25.09.14.16.3.22.46.12-.04.22-.08.31-.1.05-.01.14-.08.24-.15.24-.17.57-.41,1.1-.5.44-.07.82.05,1.12.15.35.12.53.17.79.06.46-.18.77-.25,1-.31.23-.05.32-.07.48-.18.62-.4,1.77-.73,2.59-.33.51-.94,1.25-2.19,1.76-2.55,1.4-.98,1.78-1.4,1.88-1.53,0-.06.02-.12.04-.17-.06-.18-.09-.34-.12-.48-.02-.1-.04-.21-.06-.26-.1-.24-.19-.32-.44-.54l-.13-.12c-.48-.24-1.21-.1-2.13.13l-.34.08c-1.49.35-2.93.87-4.3,1.55-.54.27-1.09.58-1.63.91-.17.1-.36.2-.55.29-.25.12-.52.25-.64.39-.08.09-.13.2-.19.31-.08.14-.16.29-.24.43-.01.05-.03.11-.04.17h-.04s-.03.03-.04.06Zm13.6-4.07c1.27,0,3.48.15,4.25.51.2.1.45.19.72.3.58.22,1.2.46,1.7.8.02-.03.03-.05.04-.07.01-.08.02-.18.03-.25-.01,0-.03-.02-.04-.03-.31-.19-.71-.33-1.11-.48l-.33-.12c-.99-.37-2.02-.66-3.04-.86l-.35-.07c-1.8-.38-3-.48-3.57-.3.07.11.14.24.2.39.05.11.08.22.1.33.22-.06.42-.09.55-.12.14-.03.45-.04.84-.04Zm-2.76,1.46h0s0,0,0,0Z"/></g></svg>