<?xml version="1.0" encoding="UTF-8"?><svg id="Calque_2" xmlns="http://www.w3.org/2000/svg" viewBox="0 0 88.46 43.38"><defs><style>.cls-1{fill:#8fe559;}</style></defs><g id="Calque_1-2"><path class="cls-1" d="m87.32,29.99c-1.03-3.68-3.38-6.35-6.47-7.34-.84-.27-2.09-.45-3.54-.66-1.6-.24-3.41-.5-4.92-.92-.97-.27-1.94-.59-2.92-.95-.52-.23-1.04-.43-1.57-.63-.31-.12-.63-.24-.96-.37-1.01-.43-2.02-.9-3.03-1.38.06-.1.11-.19.17-.29.27-.48.1-1.09-.38-1.36-.48-.27-1.09-.1-1.36.38-.08.14-.15.26-.23.39-1.18-.59-2.35-1.2-3.52-1.81.07-.13.14-.25.21-.38.28-.48.12-1.09-.36-1.37-.48-.28-1.09-.12-1.37.36-.09.16-.17.3-.26.46-1.05-.55-2.08-1.09-3.09-1.6.23-.45.09-1.01-.34-1.29-.47-.3-1.08-.16-1.38.31-.02.03-.04.05-.05.08-.61-.3-1.21-.59-1.82-.87l-.09-.04c-.45-.21-.88-.44-1.3-.66,0,0,0-.01.01-.02.24-.5.04-1.1-.46-1.34-.46-.22-.98-.05-1.26.36-2.7-1.73-4.94-3.83-7.44-6.16-.84-.79-1.7-1.6-2.61-2.41-.14-.13-.5-.49-1.08-.47-.45,0-.76.23-.91.34-3.04,2.23-7.21,5.29-3.62,10.69-.18.17-.35.34-.52.5-.76.73-1.47,1.42-2.26,2-3.12,2.28-7.6,2.78-11.7,1.3-1.74-.63-3.82-3.12-5.49-5.13-1.93-2.32-3.33-3.99-4.76-4.02-.49-.03-1,.2-1.36.6-.02.03-.05.05-.07.08C.79,12.43-.97,20.48.51,27.88c.05.26.11.51.16.77.2.94.39,1.82.39,2.69,0,.57-.08,1.16-.16,1.79-.28,2.14-.64,4.79,2.67,7,1.22.82,2.66,1.34,4.26,1.56,10.42,1.42,21.07,1.69,31.29,1.69,1.89,0,3.76,0,5.61-.02,14.03-.1,26.61-.53,38.58-4.89,1.68-.61,3.57-1.41,4.67-3.11.8-1.24.56-3.14-.67-5.37Zm-10.3-6.02c1.31.19,2.54.37,3.22.59,2.88.92,4.27,3.39,4.91,5.21-1.98.74-3.99,1.39-6.02,1.95-.98-3.32-2.59-6.12-4.68-8.12-.02-.02-.03-.03-.05-.05.89.16,1.78.29,2.62.41ZM35.89,2.17c.8.73,1.58,1.45,2.33,2.16,1.22,1.14,2.42,2.27,3.67,3.33-2.08-.37-4.81-.41-7.3.9-.61.32-1.17.71-1.69,1.12-2-3.18-.56-4.87,3-7.52ZM6.7,7.71c.66.28,2.15,2.06,3.16,3.27,1.92,2.3,4.1,4.92,6.34,5.73.82.29,1.64.52,2.48.68-.65.92-1.48,1.9-1.83,2.3-.38.45-.77.91-1.22,1.2-.95.62-2.42.55-3.94-.17-.72-.34-1.4-.78-2.13-1.25-.73-.47-1.49-.96-2.31-1.35-1.12-.54-2.23-.81-3.25-.81-.53,0-1.04.07-1.51.21.7-3.53,2.13-6.91,4.2-9.82ZM2.48,27.49c-.5-2.48-.6-5.04-.34-7.56.08-.05.15-.09.21-.13l.1-.07c.96-.6,2.44-.53,3.95.2.71.34,1.38.77,2.09,1.23.74.48,1.51.97,2.35,1.37,2.17,1.04,4.32,1.05,5.88.04.69-.45,1.21-1.05,1.66-1.58.8-.94,1.87-2.24,2.52-3.34,3.26.16,6.42-.71,8.87-2.51.9-.66,1.7-1.43,2.47-2.17,1.07-1.03,2.08-2,3.28-2.64,2.33-1.23,4.98-.97,6.8-.54,1.23.29,2.43.74,3.62,1.25-.08.14-.16.28-.24.42-.24.41-.5.86-.8,1.42-.27.48-.09,1.09.4,1.36.15.08.32.12.48.12.35,0,.7-.19.88-.52.3-.55.55-.98.78-1.38.12-.2.23-.4.34-.6.26.12.52.24.78.36l.63.29s.06.03.09.04c.52.24,1.04.49,1.56.75-.42.65-.83,1.3-1.24,2.07-.26.49-.08,1.09.41,1.35.15.08.31.12.47.12.36,0,.7-.19.88-.53.41-.78.84-1.44,1.28-2.11,1.04.53,2.1,1.08,3.19,1.65-.4.72-.81,1.43-1.27,2.12-.31.46-.19,1.08.27,1.39.17.12.37.17.56.17.32,0,.64-.15.83-.44.52-.77.95-1.53,1.39-2.31,1.14.6,2.29,1.19,3.44,1.76-.45.7-.89,1.42-1.38,2.45-.24.5-.02,1.1.48,1.33.14.07.28.1.43.1.38,0,.73-.21.91-.57.48-1.01.9-1.68,1.38-2.41.51.25,1.02.49,1.53.73h0c.64.31,1.23.57,1.78.79.86.37,1.72.71,2.58,1.03.64.29,1.23.61,1.85,1.06.89.66,1.73,1.28,2.49,2.01,1.82,1.74,3.24,4.22,4.13,7.18-7.56,1.86-15.43,2.48-23.16,1.79-3.35-.29-6.75-.84-10.04-1.37-2.37-.38-4.82-.77-7.25-1.07-4.88-.6-9.75-.85-15.55-1.05-5.66-.19-10.9-.19-16.46-.2h-1.73c-.08-.73-.23-1.43-.38-2.11-.05-.25-.11-.49-.16-.74Zm83.84,6.78c-.76,1.18-2.24,1.79-3.67,2.32-11.67,4.25-24.07,4.67-37.91,4.77-11.82.08-24.4.02-36.62-1.65-1.3-.18-2.46-.6-3.43-1.24-2.27-1.51-2.07-3-1.8-5.07.05-.34.09-.7.13-1.05h1.72c5.54,0,10.77.01,16.39.2,5.75.19,10.57.44,15.38,1.03,2.39.29,4.83.68,7.18,1.06,3.32.53,6.75,1.08,10.18,1.38,10.81.95,21.87-.57,32.05-4.39.65,1.39.64,2.28.4,2.65Z"/></g></svg>