<?xml version="1.0" encoding="UTF-8"?><svg id="Calque_2" xmlns="http://www.w3.org/2000/svg" viewBox="0 0 44.64 56.24"><defs><style>.cls-1{fill:#8fe559;}</style></defs><g id="Calque_1-2"><path class="cls-1" d="m42.62,56.24s-.07,0-.1,0c-6.06-.61-12.46-.49-18.64-.37-7.64.14-15.54.29-23.03-.91-.48-.08-.84-.5-.84-.99-.03-14.2-.05-30.28,2.1-44.66.05-.36.15-1.03.68-1.51.5-.47,1.17-.54,1.56-.58l6.83-.77s.02,0,.03,0l-.05-1.83c-.07-.15-.1-.32-.09-.5.04-.55.53-.97,1.08-.91l4.56.38c1.9-3.04,6.24-4.44,9.7-3,1.29.54,2.24,1.41,2.66,2.41l3.5.08c.28,0,.85.02,1.3.44.46.43.49,1.01.5,1.25.04.72.06,1.45.07,2.18,1.32.03,2.73.06,4.13.1,1.75.04,3.5.08,5.08.12.27,0,.53.13.72.33.18.2.28.47.25.75-.38,5.08-.46,10.27-.54,15.29-.08,5.06-.16,10.47-.24,15.88-.08,5.41-.16,10.82-.24,15.87,0,.28-.13.54-.33.73-.18.16-.42.25-.67.25Zm-11.19-2.47c3.42,0,6.85.09,10.21.38.07-4.74.15-9.77.22-14.79.08-5.41.16-10.82.24-15.88.07-4.71.15-9.56.47-14.36-1.29-.03-2.66-.06-4.03-.09-1.39-.03-2.79-.06-4.09-.09,0,.29-.01.58-.02.86,0,.23-.03.76-.45,1.18-.44.43-1.02.43-1.26.43l-20.4.04h0c-.54,0-.99-.43-1-.98l-.05-2.02-6.68.75c-.1.01-.38.04-.45.08,0,.02-.03.24-.04.32-2.09,13.94-2.11,29.59-2.08,43.5,7.07,1.03,14.57.89,21.84.75,2.5-.05,5.04-.09,7.59-.09ZM13.18,5.28l.1,4.15,19.15-.04c.04-1.48.02-2.92-.05-4.34l-4.1-.09c-.5-.01-.91-.39-.97-.88-.09-.75-.96-1.36-1.68-1.66-2.65-1.11-6.28.18-7.46,2.64-.18.37-.58.6-.98.56l-4.01-.33Zm-1.64,42.38c-.07,0-.14,0-.21-.02-.37-.06-.6-.27-.71-.36-.67-.6-1.29-1.25-1.83-1.96-.2-.06-.39-.17-.52-.32-.24-.28-.32-.77-.18-1.12.14-.35.53-.64.9-.68.25-.03.74.01,1.13.56.43.6.92,1.16,1.46,1.68,2.07-1.67,4.13-3.33,6.18-4.98.43-.35,1.06-.28,1.41.15.35.43.28,1.06-.15,1.41-2.18,1.75-4.36,3.51-6.54,5.27-.13.1-.47.37-.94.37Zm10.7-2c-.53,0-.97-.42-1-.95-.03-.55.4-1.02.95-1.04l2.87-.13c4.19-.19,8.52-.38,12.46-.63.58-.04,1.03.38,1.06.93s-.38,1.03-.93,1.06c-3.95.26-8.3.45-12.5.64l-2.87.13s-.03,0-.05,0Zm-10.96-9.97c-.54,0-.92-.31-1.08-.44-.5-.41-.97-.85-1.4-1.33-.1-.01-.19-.04-.29-.08-.33-.15-.6-.52-.63-.88-.02-.38.13-.72.41-.94.29-.24.68-.32,1.04-.22.38.1.6.37.69.48.37.45.79.87,1.24,1.25l5.57-4.87c.41-.36,1.05-.32,1.41.09.36.42.32,1.05-.09,1.41l-5.74,5.02c-.18.16-.56.49-1.13.49h0Zm16.74-1.47c-1.72,0-3.41-.07-5-.24-.55-.06-.95-.55-.89-1.1.06-.55.54-.95,1.1-.89,4.2.46,9.22.14,13.6-.19.55-.04,1.03.37,1.07.92.04.55-.37,1.03-.92,1.07-2.84.21-5.95.42-8.96.42Zm-16.56-9.36c-.07,0-.15,0-.22-.01-.61-.08-1.01-.48-1.22-.69l-1.58-1.57c-.39-.39-.39-1.02,0-1.42.39-.39,1.02-.39,1.41,0l1.58,1.57s.04.04.07.07c.03-.02.08-.05.13-.09,2.12-1.54,4.12-3.26,5.96-5.09.39-.39,1.03-.39,1.41,0,.39.39.39,1.02,0,1.41-1.91,1.91-3.99,3.69-6.2,5.3-.25.18-.73.52-1.35.52Zm24.18-1.69c-4.34,0-8.97-.16-12.9-.44-.55-.04-.96-.52-.92-1.07s.53-.96,1.07-.93c4.3.31,9.44.46,14.12.43h0c.55,0,1,.44,1,.99,0,.55-.44,1-.99,1.01-.46,0-.92,0-1.38,0Z"/></g></svg>